<svg width="29" height="26" viewBox="0 0 29 26" fill="none" xmlns="http://www.w3.org/2000/svg">
<path fill-rule="evenodd" clip-rule="evenodd" d="M0.668735 0.194067C0.215848 0.389222 -0.0926005 0.996216 0.0252267 1.46074C0.0685964 1.63196 2.46199 4.52534 5.3437 7.89022L10.5832 14.0083L10.5885 18.2654C10.5933 22.2428 10.6096 22.5423 10.8353 22.8245C10.9706 22.9938 12.3657 23.7582 14.0087 24.5632L16.9405 26L17.403 25.8088C17.6574 25.7035 17.9275 25.5024 18.0037 25.3617C18.0963 25.1903 18.1435 23.2802 18.1471 19.5572L18.1523 14.0083L23.3919 7.89022C26.2736 4.52534 28.667 1.63196 28.7103 1.46074C28.8324 0.979499 28.52 0.387702 28.0388 0.188748C27.4222 -0.0663088 1.26107 -0.0612432 0.668735 0.194067ZM25.0503 2.36154C25.0503 2.39865 23.0498 4.76837 20.6046 7.62744C18.1594 10.4865 16.0889 12.9493 16.0034 13.1004C15.8894 13.3019 15.8468 14.648 15.8435 18.1552L15.839 22.9351L14.3678 22.2102L12.8965 21.4852L12.8921 17.4301C12.8887 14.4917 12.8447 13.2995 12.7321 13.1004C12.6467 12.9493 10.5762 10.4865 8.131 7.62744C5.6858 4.76837 3.68529 2.39865 3.68529 2.36154C3.68529 2.32431 8.49241 2.29392 14.3678 2.29392C20.2432 2.29392 25.0503 2.32431 25.0503 2.36154Z" fill="#AFAFAF"/>
</svg>
