<svg width="255" height="50" viewBox="0 0 255 50" fill="none" xmlns="http://www.w3.org/2000/svg">
<path d="M25.072 49.432C20.656 49.432 16.6 48.352 12.904 46.192C9.208 44.032 6.28 41.104 4.12 37.408C1.96 33.712 0.88 29.656 0.88 25.24C0.88 20.824 1.96 16.768 4.12 13.072C6.28 9.328 9.208 6.376 12.904 4.216C16.648 2.008 20.704 0.903997 25.072 0.903997C28.624 0.903997 32.008 1.648 35.224 3.136C38.44 4.576 41.176 6.664 43.432 9.4L39.688 12.568C37.864 10.456 35.656 8.824 33.064 7.672C30.52 6.472 27.856 5.872 25.072 5.872C21.616 5.872 18.4 6.76 15.424 8.536C12.496 10.264 10.168 12.616 8.44 15.592C6.712 18.568 5.848 21.784 5.848 25.24C5.848 28.696 6.712 31.912 8.44 34.888C10.168 37.816 12.496 40.144 15.424 41.872C18.4 43.6 21.616 44.464 25.072 44.464C27.856 44.464 30.52 43.888 33.064 42.736C35.656 41.536 37.864 39.88 39.688 37.768L43.432 40.936C41.176 43.624 38.44 45.712 35.224 47.2C32.008 48.688 28.624 49.432 25.072 49.432ZM70.4967 44.104V49H49.9047V1.12H54.8727V44.104H70.4967ZM95.9419 49.36C91.5739 49.36 87.5659 48.28 83.9179 46.12C80.2699 43.96 77.3659 41.056 75.2059 37.408C73.0459 33.76 71.9659 29.752 71.9659 25.384C71.9659 21.016 73.0459 17.008 75.2059 13.36C77.3659 9.664 80.2699 6.736 83.9179 4.576C87.6139 2.416 91.6219 1.336 95.9419 1.336C100.262 1.336 104.27 2.416 107.966 4.576C111.662 6.736 114.59 9.664 116.75 13.36C118.91 17.056 119.99 21.064 119.99 25.384C119.99 29.704 118.91 33.712 116.75 37.408C114.59 41.056 111.662 43.96 107.966 46.12C104.318 48.28 100.31 49.36 95.9419 49.36ZM95.9419 44.464C99.3979 44.464 102.59 43.624 105.518 41.944C108.446 40.216 110.75 37.888 112.43 34.96C114.158 32.032 115.022 28.84 115.022 25.384C115.022 21.928 114.158 18.736 112.43 15.808C110.75 12.88 108.446 10.576 105.518 8.896C102.59 7.168 99.3979 6.304 95.9419 6.304C92.4859 6.304 89.2939 7.168 86.3659 8.896C83.4379 10.576 81.1099 12.88 79.3819 15.808C77.7019 18.736 76.8619 21.928 76.8619 25.384C76.8619 28.84 77.7019 32.032 79.3819 34.96C81.1099 37.888 83.4379 40.216 86.3659 41.944C89.2939 43.624 92.4859 44.464 95.9419 44.464ZM149.731 49.36C145.363 49.36 141.355 48.28 137.707 46.12C134.059 43.96 131.155 41.056 128.995 37.408C126.835 33.76 125.755 29.752 125.755 25.384C125.755 21.016 126.835 17.008 128.995 13.36C131.155 9.664 134.059 6.736 137.707 4.576C141.403 2.416 145.411 1.336 149.731 1.336C154.051 1.336 158.059 2.416 161.755 4.576C165.451 6.736 168.379 9.664 170.539 13.36C172.699 17.056 173.779 21.064 173.779 25.384C173.779 29.704 172.699 33.712 170.539 37.408C168.379 41.056 165.451 43.96 161.755 46.12C158.107 48.28 154.099 49.36 149.731 49.36ZM149.731 44.464C153.187 44.464 156.379 43.624 159.307 41.944C162.235 40.216 164.539 37.888 166.219 34.96C167.947 32.032 168.811 28.84 168.811 25.384C168.811 21.928 167.947 18.736 166.219 15.808C164.539 12.88 162.235 10.576 159.307 8.896C156.379 7.168 153.187 6.304 149.731 6.304C146.275 6.304 143.083 7.168 140.155 8.896C137.227 10.576 134.899 12.88 133.171 15.808C131.491 18.736 130.651 21.928 130.651 25.384C130.651 28.84 131.491 32.032 133.171 34.96C134.899 37.888 137.227 40.216 140.155 41.944C143.083 43.624 146.275 44.464 149.731 44.464ZM204.775 5.944H192.463V49H187.567V5.944H175.255V1.12H204.775V5.944ZM243.312 1.12V49H238.488V27.544H216.168V49H211.272V1.12H216.168V22.648H238.488V1.12H243.312ZM251.154 48.856C251.97 48.856 252.666 48.592 253.242 48.064C253.818 47.488 254.106 46.792 254.106 45.976C254.106 45.16 253.818 44.488 253.242 43.96C252.666 43.384 251.97 43.096 251.154 43.096C250.386 43.096 249.714 43.384 249.138 43.96C248.61 44.536 248.346 45.208 248.346 45.976C248.346 46.744 248.61 47.416 249.138 47.992C249.714 48.568 250.386 48.856 251.154 48.856Z" fill="#C13445"/>
</svg>
