<svg width="24" height="21" viewBox="0 0 24 21" fill="none" xmlns="http://www.w3.org/2000/svg">
<path fill-rule="evenodd" clip-rule="evenodd" d="M1.6001 1.8189V6.62752L13.6563 8.93664C13.6564 8.93665 13.6564 8.93666 13.6565 8.93668C15.3924 9.26886 15.3924 11.7773 13.6565 12.1095C13.6564 12.1095 13.6564 12.1095 13.6563 12.1095L1.6001 14.4187V19.1811L22.3997 10.5248L1.6001 1.8189ZM1.66787 0.0991961C0.789612 -0.27597 0 0.479909 0 1.24724L4.29179e-07 6.96301C0.000283545 7.24458 0.0977876 7.51726 0.275743 7.73413C0.453698 7.951 0.700982 8.09852 0.975059 8.15132L0.975883 8.15147L13.3581 10.523L13.3583 10.5231L13.3581 10.5231L0.976559 12.8946C0.976498 12.8946 0.976438 12.8947 0.976377 12.8947C0.701847 12.9472 0.45409 13.0948 0.275842 13.312C0.0975584 13.5292 6.67612e-07 13.8024 0 14.0844V19.8019C0 19.8049 1.62134e-05 19.8079 4.8688e-05 19.8108C0.00225014 20.0122 0.0545264 20.2098 0.152082 20.3854C0.249637 20.5611 0.389348 20.7092 0.558391 20.8162C0.727429 20.9232 0.920394 20.9856 1.11958 20.9978C1.31061 21.0095 1.50149 20.9745 1.6761 20.8961L23.0214 12.0127C23.0252 12.0111 23.029 12.0095 23.0328 12.0078C23.32 11.883 23.5646 11.676 23.7365 11.4125C23.9084 11.1489 24 10.8403 24 10.5248C24 10.2093 23.9084 9.90073 23.7365 9.63718C23.5646 9.37362 23.32 9.16665 23.0328 9.04185C23.0295 9.04041 23.0262 9.039 23.0229 9.03761L1.66787 0.0991961Z" fill="#C13445"/>
</svg>
